<svg xmlns="http://www.w3.org/2000/svg" width="29.027" height="31.815" viewBox="0 0 29.027 31.815">
  <g id="Iconly_Light-Outline_Document" data-name="Iconly/Light-Outline/Document" transform="translate(-3 -2)">
    <g id="Document" transform="translate(3 2)">
      <path id="Combined-Shape" d="M20.628,0c5.024,0,8.4,3.44,8.4,8.56V23.255c0,5.165-3.271,8.523-8.333,8.555l-12.293,0c-5.024,0-8.4-3.44-8.4-8.56V8.56C0,3.394,3.271.037,8.333.006L20.626,0Zm0,2.4L8.341,2.4C4.621,2.426,2.4,4.727,2.4,8.56V23.255c0,3.859,2.245,6.163,6,6.163l12.287,0c3.72-.022,5.944-2.327,5.944-6.159V8.56C26.63,4.7,24.386,2.4,20.628,2.4ZM20.319,21.53a1.2,1.2,0,0,1,0,2.4H8.782a1.2,1.2,0,1,1,0-2.4Zm0-6.69a1.2,1.2,0,0,1,0,2.4H8.782a1.2,1.2,0,1,1,0-2.4ZM13.184,8.166a1.2,1.2,0,0,1,0,2.4h-4.4a1.2,1.2,0,1,1,0-2.4Z" transform="translate(0 0)" fill="#17224d" fill-rule="evenodd"/>
    </g>
  </g>
</svg>
