<svg xmlns="http://www.w3.org/2000/svg" width="42.519" height="26.203" viewBox="0 0 42.519 26.203">
  <path id="Icon_awesome-handshake" data-name="Icon awesome-handshake" d="M27.725,5.25H22.246a2.04,2.04,0,0,0-1.378.536L14.6,11.526c-.006.006-.013.019-.019.026a2.537,2.537,0,0,0-.134,3.572,2.66,2.66,0,0,0,3.578.172c.006-.006.019-.006.026-.013l5.1-4.669a1.02,1.02,0,1,1,1.378,1.505l-1.665,1.524,9.286,7.539a4.6,4.6,0,0,1,.5.491V9.332L29.166,5.85a2.026,2.026,0,0,0-1.441-.6ZM34.7,9.345v14.28a2.039,2.039,0,0,0,2.041,2.041h4.082V9.345Zm3.061,14.28a1.02,1.02,0,1,1,1.02-1.02A1.023,1.023,0,0,1,37.757,23.625ZM0,25.659H4.082a2.039,2.039,0,0,0,2.041-2.041V9.345H0Zm3.061-4.075a1.02,1.02,0,1,1-1.02,1.02A1.023,1.023,0,0,1,3.061,21.584Zm27.8,1.186L21.34,15.04l-1.913,1.754a4.591,4.591,0,0,1-6.206-6.767L18.439,5.25H13.094a2.037,2.037,0,0,0-1.441.6L8.164,9.332v14.28H9.331L15.1,28.835a4.081,4.081,0,0,0,5.74-.593l.013-.013L22,29.218a2.37,2.37,0,0,0,3.336-.344l2-2.462.344.281a2.038,2.038,0,0,0,2.87-.3l.606-.746a2.045,2.045,0,0,0-.293-2.876Z" transform="translate(0.85 -4.4)" fill="none" stroke="#17224d" stroke-width="1.7"/>
</svg>
