<svg xmlns="http://www.w3.org/2000/svg" width="30" height="36.563" viewBox="0 0 30 36.563">
  <path id="Icon_material-notifications-none" data-name="Icon material-notifications-none" d="M21,40.312a3.761,3.761,0,0,0,3.75-3.75h-7.5A3.761,3.761,0,0,0,21,40.312Zm11.25-11.25V19.687c0-5.756-3.056-10.575-8.437-11.85V6.562a2.813,2.813,0,0,0-5.625,0V7.837C12.825,9.112,9.75,13.912,9.75,19.687v9.375L6,32.812v1.875H36V32.812ZM28.5,30.937h-15V19.687c0-4.65,2.831-8.437,7.5-8.437s7.5,3.787,7.5,8.437Z" transform="translate(-6 -3.75)" fill="#17224d"/>
</svg>
