<svg xmlns="http://www.w3.org/2000/svg" width="38.5" height="24.5" viewBox="0 0 38.5 24.5">
  <path id="Icon_material-people-outline" data-name="Icon material-people-outline" d="M28.875,22.75A20.977,20.977,0,0,0,21,24.5a20.643,20.643,0,0,0-7.875-1.75c-3.8,0-11.375,1.89-11.375,5.688V33.25h38.5V28.438C40.25,24.64,32.673,22.75,28.875,22.75Zm-7,7.875H4.375V28.438c0-.945,4.48-3.062,8.75-3.062s8.75,2.118,8.75,3.063Zm15.75,0H24.5V28.438a3.184,3.184,0,0,0-.91-2.135,16.883,16.883,0,0,1,5.285-.927c4.27,0,8.75,2.118,8.75,3.063ZM13.125,21A6.125,6.125,0,1,0,7,14.875,6.132,6.132,0,0,0,13.125,21Zm0-9.625a3.5,3.5,0,1,1-3.5,3.5A3.51,3.51,0,0,1,13.125,11.375ZM28.875,21a6.125,6.125,0,1,0-6.125-6.125A6.132,6.132,0,0,0,28.875,21Zm0-9.625a3.5,3.5,0,1,1-3.5,3.5A3.51,3.51,0,0,1,28.875,11.375Z" transform="translate(-1.75 -8.75)" fill="#17224d"/>
</svg>
